#!OML:ASF F:\VICON\USERDATA\INSTALL\Justin_Nancy\Justin_Nancy.ASF
:FULLY-SPECIFIED
:DEGREES
272
root 0.632232 17.7143 -11.8532 1.19549 -0.297408 -1.41148
lowerback 7.734 -0.197402 -0.10703
upperback 0.454199 -0.15644 2.86475
thorax -3.86087 -0.0524992 3.0497
lowerneck -17.0134 -4.2088 -9.72042
upperneck 19.1405 -4.55768 5.955
head 9.19391 -2.20517 3.0625
rclavicle -8.94531e-016 -8.74653e-015
rhumerus -37.2239 -19.8051 -74.2783
rradius 25.5522
rwrist 11.1171
rhand -17.0565 18.4129
rfingers 7.12502
rthumb 9.18078 -11.3672
lclavicle -8.94531e-016 -8.74653e-015
lhumerus -30.7372 4.47021 84.778
lradius 33.273
lwrist -6.70378
lhand -13.7852 30.2802
lfingers 7.12502
lthumb 12.3362 59.8963
rfemur -12.2542 6.12414 26.5886
rtibia 22.3633
rfoot -5.50854 -7.05121
rtoes -0.566848
lfemur -17.1887 -1.85959 -17.5235
ltibia 66.0566
lfoot 4.83292 -5.51526
ltoes -6.83156
273
root 0.622156 17.7114 -11.68 1.2807 -0.553329 -1.5228
lowerback 7.57872 -0.0226337 0.0112905
upperback 0.507231 0.0825974 2.86071
thorax -3.73141 0.0628096 2.95076
lowerneck -17.433 -4.32507 -9.83859
upperneck 19.3833 -4.65824 5.97951
head 9.36759 -2.25334 3.07524
rclavicle -1.29707e-014 -2.06736e-014
rhumerus -36.6367 -19.2429 -74.772
rradius 25.9087
rwrist 10.9406
rhand -16.6041 16.6121
rfingers 7.12502
rthumb 9.61733 -13.1483
lclavicle -1.29707e-014 -2.06736e-014
lhumerus -30.8249 4.37176 84.8584
lradius 32.8259
lwrist -6.17091
lhand -14.398 28.3705
lfingers 7.12502
lthumb 11.7454 58.0212
rfemur -11.7753 6.36452 26.8477
rtibia 22.5447
rfoot -6.21645 -7.33313
rtoes -0.0993253
lfemur -18.604 -1.43181 -17.3604
ltibia 66.3917
lfoot 3.34727 -4.65666
ltoes -8.60016
274
root 0.61498 17.7069 -11.5154 1.38299 -0.743972 -1.6342
lowerback 7.50246 0.0744716 0.183298
upperback 0.421971 0.225366 2.80914
thorax -3.78355 0.131315 2.78469
lowerneck -17.1801 -4.28586 -9.82059
upperneck 19.2755 -4.62893 5.97211
head 9.28063 -2.24233 3.07506
rclavicle -9.79014e-015 -1.35174e-014
rhumerus -36.198 -18.6718 -75.2802
rradius 26.1014
rwrist 10.9488
rhand -16.1898 13.9946
rfingers 7.12502
rthumb 10.017 -15.747
lclavicle -9.79014e-015 -1.35174e-014
lhumerus -31.2627 4.56324 84.6527
lradius 32.3692
lwrist -6.64173
lhand -14.7157 27.4619
lfingers 7.12502
lthumb 11.4389 57.1299
rfemur -11.376 6.40642 27.0723
rtibia 22.74
rfoot -7.33338 -7.47256
rtoes 3.74802
lfemur -20.0255 -1.11832 -17.2078
ltibia 66.6071
lfoot 1.55415 -3.79997
ltoes -9.32402
275
root 0.608592 17.6854 -11.3567 1.32624 -0.880562 -1.75058
lowerback 7.59515 0.200165 0.375777
upperback 0.366709 0.408824 2.71817
thorax -3.89946 0.219187 2.56212
lowerneck -16.4819 -4.21604 -9.67311
upperneck 18.8868 -4.63253 5.99203
head 9.0157 -2.23907 3.06011
rclavicle 5.11871e-015 1.03368e-014
rhumerus -35.7883 -18.454 -75.6993
rradius 26.0788
rwrist 10.9324
rhand -16.2693 12.7353
rfingers 7.12502
rthumb 9.94037 -17.01
lclavicle 5.11871e-015 1.03368e-014
lhumerus -31.6579 4.78424 84.3693
lradius 32.0305
lwrist -7.41677
lhand -13.766 27.4991
lfingers 7.12502
lthumb 12.3548 57.114
rfemur -10.7369 6.33988 27.323
rtibia 22.8579
rfoot -7.65731 -7.35705
rtoes 3.78212
lfemur -21.2553 -0.857106 -17.066
ltibia 66.6991
lfoot -0.0847493 -3.03331
ltoes -8.92636
276
root 0.60195 17.6646 -11.1881 1.18775 -1.06109 -1.86502
lowerback 7.73109 0.325999 0.571501
upperback 0.399996 0.591908 2.6349
thorax -3.94588 0.30578 2.34484
lowerneck -16.4331 -4.26318 -9.66957
upperneck 18.9769 -4.7346 6.11353
head 9.04933 -2.27528 3.08967
rclavicle -4.12478e-015 -1.03368e-014
rhumerus -35.3178 -18.2014 -76.1489
rradius 26.2028
rwrist 10.979
rhand -16.2074 12.3934
rfingers 7.12502
rthumb 10 -17.349
lclavicle -4.12478e-015 -1.03368e-014
lhumerus -31.9273 4.91179 84.1344
lradius 31.9545
lwrist -8.17862
lhand -11.6541 29.0354
lfingers 7.12502
lthumb 14.3904 58.5166
rfemur -9.91348 6.37612 27.5922
rtibia 22.9756
rfoot -8.24642 -7.50714
rtoes 0.598144
lfemur -22.3563 -0.586707 -16.935
ltibia 66.6416
lfoot -1.53705 -2.08375
ltoes -8.36617
277
root 0.596686 17.653 -11.0194 1.18162 -1.28142 -2.04112
lowerback 7.84215 0.406642 0.774397
upperback 0.410993 0.720806 2.67035
thorax -3.99956 0.366393 2.25277
lowerneck -16.915 -4.31934 -9.86849
upperneck 19.3046 -4.7386 6.18064
head 9.25813 -2.27913 3.14407
rclavicle -2.48481e-015 3.97569e-015
rhumerus -34.7214 -17.0317 -76.8306
rradius 26.591
rwrist 10.1432
rhand -16.2812 11.5674
rfingers 7.12502
rthumb 9.92888 -18.1784
lclavicle -2.48481e-015 3.97569e-015
lhumerus -32.186 5.30924 84.0025
lradius 31.7285
lwrist -8.54936
lhand -10.8032 30.016
lfingers 7.12502
lthumb 15.2101 59.4369
rfemur -9.18916 6.35868 27.904
rtibia 23.0324
rfoot -8.90784 -7.60299
rtoes -0.543235
lfemur -23.6096 -0.333349 -16.7659
ltibia 66.4124
lfoot -2.63794 -1.13158
ltoes -8.69586
278
root 0.589779 17.6427 -10.8499 1.09743 -1.52273 -2.10653
lowerback 8.02084 0.500464 0.837574
upperback 0.350605 0.857589 2.67248
thorax -4.16641 0.433502 2.20334
lowerneck -16.824 -4.28028 -9.99048
upperneck 19.297 -4.6664 6.20685
head 9.23648 -2.25318 3.18408
rclavicle -6.90777e-015 -1.19271e-014
rhumerus -34.3409 -16.0566 -77.2949
rradius 26.7839
rwrist 9.57053
rhand -16.1248 11.4702
rfingers 7.12502
rthumb 10.0797 -18.2684
lclavicle -6.90777e-015 -1.19271e-014
lhumerus -32.659 5.69772 83.8143
lradius 31.3337
lwrist -8.88374
lhand -11.0343 30.0831
lfingers 7.12502
lthumb 14.9875 59.5207
rfemur -8.4048 6.44883 28.082
rtibia 23.0046
rfoot -9.6116 -7.6888
rtoes 0.645256
lfemur -24.672 -0.0677702 -16.7145
ltibia 65.9219
lfoot -3.65653 -0.430253
ltoes -8.99944
279
root 0.584218 17.6262 -10.6759 1.0474 -1.7352 -2.3447
lowerback 8.03049 0.62045 1.15298
upperback 0.300292 1.04651 2.64148
thorax -4.22417 0.520794 1.97146
lowerneck -16.4289 -4.24031 -9.87534
upperneck 19.1276 -4.64922 6.09044
head 9.09844 -2.25421 3.12867
rclavicle -5.86415e-015 -1.66979e-014
rhumerus -34.0557 -15.6517 -77.6229
rradius 27.0368
rwrist 9.82507
rhand -16.1962 12.5247
rfingers 7.12502
rthumb 10.0109 -17.2172
lclavicle -5.86415e-015 -1.66979e-014
lhumerus -33.1805 5.7821 83.6528
lradius 31.0046
lwrist -8.97475
lhand -11.1113 29.757
lfingers 7.12502
lthumb 14.9133 59.2001
rfemur -7.71027 6.54424 28.4335
rtibia 23.0304
rfoot -10.3422 -7.81253
rtoes 1.27158
lfemur -25.6427 0.140151 -16.4752
ltibia 65.2525
lfoot -4.52644 0.219683
ltoes -8.71284
280
root 0.581285 17.6 -10.5072 1.13961 -1.78897 -2.63086
lowerback 7.93495 0.734639 1.61105
upperback 0.307884 1.23262 2.5424
thorax -4.1557 0.603148 1.59006
lowerneck -16.3814 -4.29167 -9.59496
upperneck 19.1013 -4.76966 5.96574
head 9.08043 -2.30366 3.02306
rclavicle -5.01931e-015 6.75868e-015
rhumerus -33.5027 -15.4752 -78.0273
rradius 27.2233
rwrist 10.1297
rhand -16.2855 13.745
rfingers 7.12502
rthumb 9.92473 -16.0011
lclavicle -5.01931e-015 6.75868e-015
lhumerus -33.272 5.56954 83.4893
lradius 30.4639
lwrist -8.93918
lhand -12.8463 27.5789
lfingers 7.12502
lthumb 13.2414 57.1383
rfemur -7.20307 6.4033 28.8143
rtibia 23.1348
rfoot -11.0512 -7.85683
rtoes 1.39196
lfemur -26.7411 0.259104 -16.1533
ltibia 64.477
lfoot -5.39981 0.810847
ltoes -8.73151
281
root 0.578226 17.5704 -10.3421 1.15731 -1.72704 -2.68901
lowerback 7.91524 0.763424 1.76321
upperback 0.38979 1.27923 2.49655
thorax -4.05583 0.623275 1.45206
lowerneck -16.6567 -4.37887 -9.64889
upperneck 19.2256 -4.8574 5.98302
head 9.18321 -2.34302 3.02434
rclavicle -2.87244e-014 -2.06736e-014
rhumerus -32.8201 -15.0082 -78.4342
rradius 27.3667
rwrist 9.7145
rhand -16.5952 14.2212
rfingers 7.12502
rthumb 9.62596 -15.5389
lclavicle -2.87244e-014 -2.06736e-014
lhumerus -33.1923 5.9022 83.33
lradius 29.7574
lwrist -9.14889
lhand -14.5678 25.5741
lfingers 7.12502
lthumb 11.5816 55.234
rfemur -6.56987 6.12706 28.962
rtibia 23.2076
rfoot -11.7165 -7.98232
rtoes 0.0781523
lfemur -27.6973 0.212972 -16.139
ltibia 63.5766
lfoot -6.03585 1.69024
ltoes -7.7503
282
root 0.574267 17.5432 -10.1793 1.16251 -1.67574 -2.86764
lowerback 7.96103 0.751905 1.99175
upperback 0.424165 1.28632 2.53175
thorax -4.04179 0.622908 1.35903
lowerneck -16.9211 -4.38469 -9.83606
upperneck 19.3535 -4.82039 6.10221
head 9.28085 -2.32333 3.10048
rclavicle 7.90169e-015 -9.14409e-015
rhumerus -32.2675 -14.2427 -78.7992
rradius 27.6554
rwrist 9.43769
rhand -17.2603 15.0918
rfingers 7.12502
rthumb 8.98416 -14.6969
lclavicle 7.90169e-015 -9.14409e-015
lhumerus -33.472 6.09528 83.2403
lradius 29.4212
lwrist -8.78409
lhand -12.8599 27.604
lfingers 7.12502
lthumb 13.2282 57.1643
rfemur -5.92336 5.87178 29.2326
rtibia 23.2515
rfoot -12.419 -8.15134
rtoes -1.06117
lfemur -28.6046 0.203625 -15.9576
ltibia 62.5214
lfoot -6.19532 2.47519
ltoes -4.53833
